<svg width="23" height="39" viewBox="0 0 23 39" fill="none" xmlns="http://www.w3.org/2000/svg">
<path d="M19.4639 9.58013C20.8523 15.0309 20.6234 21.422 17.6484 26.241C16.5652 28.004 17.7399 29.87 18.3655 31.8387C18.7927 33.161 19.5555 34.5567 19.052 35.8496C18.8045 36.4399 18.3845 36.9484 17.8429 37.3134C17.3013 37.6785 16.6614 37.8845 16.0007 37.9064C14.2537 38.0312 12.4995 38.0312 10.7524 37.9064C3.30722 37.4656 10.8745 29.7083 8.73856 26.2557C6.93596 23.0348 6.01698 19.4243 6.06866 15.7658C6.06866 13.7236 5.82455 10.5941 7.47226 9.02201C9.8828 6.73006 14.1852 6.71539 16.9161 7.94952M6.38904 19.1005C6.54161 20.9076 8.67753 21.1722 10.1269 20.7462C11.5763 20.3201 13.0104 19.1152 14.7039 18.792C15.7109 18.5555 16.7727 18.6745 17.6964 19.1274C18.6201 19.5803 19.3447 20.3372 19.7386 21.2605M13.7427 24.1252L22.5 1M9.69972 34.909C11.9739 35.5981 14.413 35.5981 16.6872 34.909M6.00763 15.927C5.70123 15.9862 5.38947 16.0158 5.07698 16.0153C3.86309 16.0153 2.69892 15.5509 1.84057 14.7244C0.982218 13.8978 0.5 12.7767 0.5 11.6077C0.5 10.4387 0.982218 9.3176 1.84057 8.49101C2.69892 7.66443 3.86309 7.20008 5.07698 7.20008C6.29087 7.20008 7.45504 7.66443 8.31339 8.49101C9.17173 9.3176 9.65395 10.4387 9.65395 11.6077M6.46533 10.8878C7.97687 11.5575 9.61464 11.9224 11.278 11.9603C12.9414 11.9982 14.5953 11.7081 16.138 11.108" stroke="#B00C15" stroke-linecap="round" stroke-linejoin="round"/>
</svg>
