<svg width="29" height="37" viewBox="0 0 29 37" fill="none" xmlns="http://www.w3.org/2000/svg">
<path d="M18.118 8.45737e-05L4.24148 21.885L8.29736 29.9846C13.888 24.2246 19.5623 14.9276 24.0626 4.95028L18.118 0L18.118 8.45737e-05ZM18.6825 2.54123C18.847 2.54377 18.9804 2.61002 19.0885 2.71047C19.3046 2.91153 19.4867 3.3375 19.4867 4.09621C19.4867 5.61328 18.5928 7.56665 17.6521 8.16847C17.1817 8.46929 16.8669 8.40913 16.6508 8.20824C16.4346 8.0071 16.2505 7.58104 16.2505 6.8225C16.2505 5.30526 17.1463 3.35189 18.0871 2.75007C18.3224 2.5997 18.5181 2.53852 18.6825 2.54123ZM25.0505 5.7727C20.4801 15.9088 14.7351 25.3508 8.95075 31.2911L11.5818 36.5481C17.3947 30.7806 25.1482 19.4041 29 9.05969L25.0504 5.77262L25.0505 5.7727ZM3.31354 22.8317C2.21041 24.2804 1.10604 25.5998 0 26.7957V37C1.71854 34.1539 3.55115 30.612 5.42843 27.0546L3.31354 22.8315V22.8317Z" fill="#B00C15"/>
</svg>
